<svg id="visual" viewBox="0 0 900 600" width="900" height="600" xmlns="http://www.w3.org/2000/svg" xmlns:xlink="http://www.w3.org/1999/xlink" version="1.1"><rect x="0" y="0" width="900" height="600" fill="#000000"></rect><defs><linearGradient id="grad1_0" x1="33.3%" y1="0%" x2="100%" y2="100%"><stop offset="20%" stop-color="#000000" stop-opacity="1"></stop><stop offset="80%" stop-color="#000000" stop-opacity="1"></stop></linearGradient></defs><defs><linearGradient id="grad2_0" x1="0%" y1="0%" x2="66.7%" y2="100%"><stop offset="20%" stop-color="#000000" stop-opacity="1"></stop><stop offset="80%" stop-color="#000000" stop-opacity="1"></stop></linearGradient></defs><g transform="translate(900, 0)"><path d="M0 486.7C-57.4 470.3 -114.8 453.9 -180.2 435.1C-245.7 416.4 -319.2 395.3 -344.2 344.2C-369.2 293.1 -345.6 212 -361.2 149.6C-376.9 87.3 -431.8 43.6 -486.7 0L0 0Z" fill="#FA7268"></path></g><g transform="translate(0, 600)"><path d="M0 -486.7C59.3 -467.8 118.6 -448.8 176.8 -426.8C235 -404.9 292.2 -380 340.1 -340.1C388.1 -300.3 426.8 -245.4 449.7 -186.3C472.6 -127.1 479.7 -63.5 486.7 0L0 0Z" fill="#FA7268"></path></g></svg>