<svg xmlns="http://www.w3.org/2000/svg" version="1.1" xmlns:xlink="http://www.w3.org/1999/xlink" xmlns:svgjs="http://svgjs.dev/svgjs" width="1440" height="560" preserveAspectRatio="none" viewBox="0 0 1440 560"><g mask="url(&quot;#SvgjsMask1940&quot;)" fill="none"><rect width="1440" height="560" x="0" y="0" fill="url(&quot;#SvgjsLinearGradient1941&quot;)"></rect><path d="M738.64 304.43L756.74 304.43L756.74 352.21L738.64 352.21z" stroke="rgba(74, 158, 188, 1)"></path><path d="M848.05 194.35L896.05 194.35L896.05 196.22L848.05 196.22z" fill="#e73635"></path><path d="M578.69 91.49 a17.41 17.41 0 1 0 34.82 0 a17.41 17.41 0 1 0 -34.82 0z" stroke="#037b0b"></path><path d="M1288.89 375.73 a41.6 41.6 0 1 0 83.2 0 a41.6 41.6 0 1 0 -83.2 0z" stroke="#d3b714"></path><path d="M584.64 532.02a37.57 37.57 0 1 0-44.63-60.45z" stroke="rgba(74, 158, 188, 1)"></path><path d="M547.96 215.77 a31.68 31.68 0 1 0 63.36 0 a31.68 31.68 0 1 0 -63.36 0z" stroke="rgba(74, 158, 188, 1)"></path><path d="M1429.46 32.21L1473.18 32.21L1473.18 75.93L1429.46 75.93z" fill="#d3b714"></path><path d="M497.49 254.96L502.94 254.96L502.94 257.31L497.49 257.31z" stroke="#e73635"></path><path d="M544.8 150.82a3.39 3.39 0 1 0-6.71-0.99z" stroke="#e73635"></path><path d="M642.79 236.46a54.95 54.95 0 1 0-105.39 31.14z" stroke="#e73635"></path><path d="M453.23 396.46L453.81 396.46L453.81 397.04L453.23 397.04z" fill="rgba(74, 158, 188, 1)"></path><path d="M989.61 118.37L998.6 118.37L998.6 127.36L989.61 127.36z" stroke="#d3b714"></path><path d="M350.91 282.83a13.9 13.9 0 1 0 23.64-14.62z" stroke="#d3b714"></path><path d="M228.02 181.48a17.74 17.74 0 1 0-25.38-24.79z" stroke="rgba(74, 158, 188, 1)"></path><path d="M1062.13 289.92L1112.43 289.92L1112.43 340.22L1062.13 340.22z" stroke="rgba(74, 158, 188, 1)"></path><path d="M107.87 146.07 a41.49 41.49 0 1 0 82.98 0 a41.49 41.49 0 1 0 -82.98 0z" stroke="#037b0b"></path><path d="M596.1 17.03L642.37 17.03L642.37 41.62L596.1 41.62z" stroke="#e73635"></path><path d="M1070.51 77.79 a27.42 27.42 0 1 0 54.84 0 a27.42 27.42 0 1 0 -54.84 0z" stroke="#d3b714"></path><path d="M474.88 495.06a2.15 2.15 0 1 0-4.15-1.13z" stroke="#d3b714"></path><path d="M254.04 44.47L280.51 44.47L280.51 70.94L254.04 70.94z" fill="#037b0b"></path><path d="M1304.79 375.67L1357.63 375.67L1357.63 428.51L1304.79 428.51z" fill="#037b0b"></path><path d="M1375.58 74.95a40.63 40.63 0 1 0 72.02-37.63z" fill="#037b0b"></path><path d="M865.18 408.16L919.09 408.16L919.09 411.14L865.18 411.14z" fill="#e73635"></path><path d="M841.75 175.86a46.34 46.34 0 1 0 68.79 62.1z" stroke="#d3b714"></path><path d="M1061.18 378.99L1092.51 378.99L1092.51 391.88L1061.18 391.88z" stroke="rgba(74, 158, 188, 1)"></path><path d="M1233.58 190.22L1269.17 190.22L1269.17 225.81L1233.58 225.81z" fill="#e73635"></path><path d="M362.58 119.8L400.51 119.8L400.51 157.73L362.58 157.73z" fill="#e73635"></path><path d="M800.43 442.84a7.16 7.16 0 1 0-2.43 14.11z" fill="#e73635"></path><path d="M258.62 194.22a51.51 51.51 0 1 0 96.97 34.78z" fill="rgba(74, 158, 188, 1)"></path><path d="M711.64 128.23a45.47 45.47 0 1 0 69.94 58.13z" stroke="#e73635"></path><path d="M856.01 75.47a6.54 6.54 0 1 0 11.95-5.32z" stroke="#e73635"></path><path d="M-23.21 136.01 a26.89 26.89 0 1 0 53.78 0 a26.89 26.89 0 1 0 -53.78 0z" stroke="rgba(74, 158, 188, 1)"></path><path d="M617.56 381.27L670.81 381.27L670.81 400.66L617.56 400.66z" fill="#e73635"></path></g><defs><mask id="SvgjsMask1940"><rect width="1440" height="560" fill="#ffffff"></rect></mask><linearGradient x1="15.28%" y1="-39.29%" x2="84.72%" y2="139.29%" gradientUnits="userSpaceOnUse" id="SvgjsLinearGradient1941"><stop stop-color="#0e2a47" offset="0"></stop><stop stop-color="rgba(52, 79, 114, 1)" offset="1"></stop></linearGradient></defs></svg>