<svg id="visual" viewBox="0 0 900 600" width="900" height="600" xmlns="http://www.w3.org/2000/svg" xmlns:xlink="http://www.w3.org/1999/xlink" version="1.1"><rect x="0" y="0" width="900" height="600" fill="#001220"></rect><defs><linearGradient id="grad1_0" x1="33.3%" y1="0%" x2="100%" y2="100%"><stop offset="20%" stop-color="#fbae3c" stop-opacity="1"></stop><stop offset="80%" stop-color="#fbae3c" stop-opacity="1"></stop></linearGradient></defs><defs><linearGradient id="grad1_1" x1="33.3%" y1="0%" x2="100%" y2="100%"><stop offset="20%" stop-color="#fbae3c" stop-opacity="1"></stop><stop offset="80%" stop-color="#f17c53" stop-opacity="1"></stop></linearGradient></defs><defs><linearGradient id="grad1_2" x1="33.3%" y1="0%" x2="100%" y2="100%"><stop offset="20%" stop-color="#cc5867" stop-opacity="1"></stop><stop offset="80%" stop-color="#f17c53" stop-opacity="1"></stop></linearGradient></defs><defs><linearGradient id="grad1_3" x1="33.3%" y1="0%" x2="100%" y2="100%"><stop offset="20%" stop-color="#cc5867" stop-opacity="1"></stop><stop offset="80%" stop-color="#96446e" stop-opacity="1"></stop></linearGradient></defs><defs><linearGradient id="grad1_4" x1="33.3%" y1="0%" x2="100%" y2="100%"><stop offset="20%" stop-color="#593762" stop-opacity="1"></stop><stop offset="80%" stop-color="#96446e" stop-opacity="1"></stop></linearGradient></defs><defs><linearGradient id="grad1_5" x1="33.3%" y1="0%" x2="100%" y2="100%"><stop offset="20%" stop-color="#593762" stop-opacity="1"></stop><stop offset="80%" stop-color="#232745" stop-opacity="1"></stop></linearGradient></defs><defs><linearGradient id="grad1_6" x1="33.3%" y1="0%" x2="100%" y2="100%"><stop offset="20%" stop-color="#001220" stop-opacity="1"></stop><stop offset="80%" stop-color="#232745" stop-opacity="1"></stop></linearGradient></defs><defs><linearGradient id="grad2_0" x1="0%" y1="0%" x2="66.7%" y2="100%"><stop offset="20%" stop-color="#fbae3c" stop-opacity="1"></stop><stop offset="80%" stop-color="#fbae3c" stop-opacity="1"></stop></linearGradient></defs><defs><linearGradient id="grad2_1" x1="0%" y1="0%" x2="66.7%" y2="100%"><stop offset="20%" stop-color="#f17c53" stop-opacity="1"></stop><stop offset="80%" stop-color="#fbae3c" stop-opacity="1"></stop></linearGradient></defs><defs><linearGradient id="grad2_2" x1="0%" y1="0%" x2="66.7%" y2="100%"><stop offset="20%" stop-color="#f17c53" stop-opacity="1"></stop><stop offset="80%" stop-color="#cc5867" stop-opacity="1"></stop></linearGradient></defs><defs><linearGradient id="grad2_3" x1="0%" y1="0%" x2="66.7%" y2="100%"><stop offset="20%" stop-color="#96446e" stop-opacity="1"></stop><stop offset="80%" stop-color="#cc5867" stop-opacity="1"></stop></linearGradient></defs><defs><linearGradient id="grad2_4" x1="0%" y1="0%" x2="66.7%" y2="100%"><stop offset="20%" stop-color="#96446e" stop-opacity="1"></stop><stop offset="80%" stop-color="#593762" stop-opacity="1"></stop></linearGradient></defs><defs><linearGradient id="grad2_5" x1="0%" y1="0%" x2="66.7%" y2="100%"><stop offset="20%" stop-color="#232745" stop-opacity="1"></stop><stop offset="80%" stop-color="#593762" stop-opacity="1"></stop></linearGradient></defs><defs><linearGradient id="grad2_6" x1="0%" y1="0%" x2="66.7%" y2="100%"><stop offset="20%" stop-color="#232745" stop-opacity="1"></stop><stop offset="80%" stop-color="#001220" stop-opacity="1"></stop></linearGradient></defs><g transform="translate(900, 0)"><path d="M0 405.6C-40.4 369.4 -80.7 333.1 -132 318.7C-183.3 304.3 -245.5 311.8 -286.8 286.8C-328.1 261.8 -348.6 204.4 -364.9 151.2C-381.3 97.9 -393.4 49 -405.6 0L0 0Z" fill="#0f1d33"></path><path d="M0 347.7C-34.6 316.6 -69.2 285.5 -113.2 273.2C-157.1 260.9 -210.4 267.3 -245.8 245.8C-281.3 224.4 -298.8 175.2 -312.8 129.6C-326.8 84 -337.2 42 -347.7 0L0 0Z" fill="#3d3056"></path><path d="M0 289.7C-28.8 263.8 -57.7 237.9 -94.3 227.7C-130.9 217.4 -175.4 222.7 -204.9 204.9C-234.4 187 -249 146 -260.7 108C-272.3 70 -281 35 -289.7 0L0 0Z" fill="#773d6b"></path><path d="M0 231.8C-23.1 211.1 -46.1 190.4 -75.4 182.1C-104.7 173.9 -140.3 178.2 -163.9 163.9C-187.5 149.6 -199.2 116.8 -208.5 86.4C-217.9 56 -224.8 28 -231.8 0L0 0Z" fill="#b34c6d"></path><path d="M0 173.8C-17.3 158.3 -34.6 142.8 -56.6 136.6C-78.6 130.4 -105.2 133.6 -122.9 122.9C-140.6 112.2 -149.4 87.6 -156.4 64.8C-163.4 42 -168.6 21 -173.8 0L0 0Z" fill="#e1685e"></path><path d="M0 115.9C-11.5 105.5 -23.1 95.2 -37.7 91.1C-52.4 87 -70.1 89.1 -81.9 81.9C-93.8 74.8 -99.6 58.4 -104.3 43.2C-108.9 28 -112.4 14 -115.9 0L0 0Z" fill="#f99447"></path><path d="M0 57.9C-5.8 52.8 -11.5 47.6 -18.9 45.5C-26.2 43.5 -35.1 44.5 -41 41C-46.9 37.4 -49.8 29.2 -52.1 21.6C-54.5 14 -56.2 7 -57.9 0L0 0Z" fill="#fbae3c"></path></g><g transform="translate(0, 600)"><path d="M0 -405.6C47.8 -390.9 95.5 -376.1 149.2 -360.3C203 -344.5 262.7 -327.6 286.8 -286.8C310.9 -246.1 299.3 -181.5 313.2 -129.7C327.1 -78 366.3 -39 405.6 0L0 0Z" fill="#0f1d33"></path><path d="M0 -347.7C40.9 -335 81.9 -322.4 127.9 -308.8C174 -295.3 225.2 -280.8 245.8 -245.8C266.5 -210.9 256.6 -155.6 268.5 -111.2C280.3 -66.8 314 -33.4 347.7 0L0 0Z" fill="#3d3056"></path><path d="M0 -289.7C34.1 -279.2 68.2 -268.7 106.6 -257.4C145 -246.1 187.7 -234 204.9 -204.9C222.1 -175.8 213.8 -129.6 223.7 -92.7C233.6 -55.7 261.7 -27.8 289.7 0L0 0Z" fill="#773d6b"></path><path d="M0 -231.8C27.3 -223.4 54.6 -214.9 85.3 -205.9C116 -196.8 150.1 -187.2 163.9 -163.9C177.7 -140.6 171 -103.7 179 -74.1C186.9 -44.5 209.3 -22.3 231.8 0L0 0Z" fill="#b34c6d"></path><path d="M0 -173.8C20.5 -167.5 40.9 -161.2 64 -154.4C87 -147.6 112.6 -140.4 122.9 -122.9C133.2 -105.5 128.3 -77.8 134.2 -55.6C140.2 -33.4 157 -16.7 173.8 0L0 0Z" fill="#e1685e"></path><path d="M0 -115.9C13.6 -111.7 27.3 -107.5 42.6 -102.9C58 -98.4 75.1 -93.6 81.9 -81.9C88.8 -70.3 85.5 -51.9 89.5 -37.1C93.4 -22.3 104.7 -11.1 115.9 0L0 0Z" fill="#f99447"></path><path d="M0 -57.9C6.8 -55.8 13.6 -53.7 21.3 -51.5C29 -49.2 37.5 -46.8 41 -41C44.4 -35.2 42.8 -25.9 44.7 -18.5C46.7 -11.1 52.3 -5.6 57.9 0L0 0Z" fill="#fbae3c"></path></g></svg>