<svg xmlns="http://www.w3.org/2000/svg" version="1.1" xmlns:xlink="http://www.w3.org/1999/xlink" xmlns:svgjs="http://svgjs.dev/svgjs" width="1440" height="560" preserveAspectRatio="none" viewBox="0 0 1440 560"><g mask="url(&quot;#SvgjsMask1034&quot;)" fill="none"><path d="M-78.31 341.81L-78.31 341.81" stroke="rgba(0, 0, 0, 1)" stroke-width="1.5"></path><path d="M-78.31 341.81L-44.81 504.88" stroke="rgba(0, 0, 0, 1)" stroke-width="1.5"></path><path d="M-78.31 341.81L93.45 343.96" stroke="rgba(0, 0, 0, 1)" stroke-width="1.5"></path><path d="M-78.31 341.81L48.3 543.64" stroke="rgba(0, 0, 0, 1)" stroke-width="1.5"></path><path d="M-44.81 504.88L-44.81 504.88" stroke="rgba(0, 0, 0, 1)" stroke-width="1.5"></path><path d="M-44.81 504.88L48.3 543.64" stroke="rgba(0, 0, 0, 1)" stroke-width="1.5"></path><path d="M-44.81 504.88L-100.8 644.93" stroke="rgba(0, 0, 0, 1)" stroke-width="1.5"></path><path d="M-44.81 504.88L47.37 648.09" stroke="rgba(0, 0, 0, 1)" stroke-width="1.5"></path><path d="M-44.81 504.88L93.45 343.96" stroke="rgba(0, 0, 0, 1)" stroke-width="1.5"></path><path d="M-44.81 504.88L221.81 492.02" stroke="rgba(0, 0, 0, 1)" stroke-width="1.5"></path><path d="M-100.8 644.93L-100.8 644.93" stroke="rgba(0, 0, 0, 1)" stroke-width="1.5"></path><path d="M-100.8 644.93L47.37 648.09" stroke="rgba(0, 0, 0, 1)" stroke-width="1.5"></path><path d="M-100.8 644.93L48.3 543.64" stroke="rgba(0, 0, 0, 1)" stroke-width="1.5"></path><path d="M-100.8 644.93L-78.31 341.81" stroke="rgba(0, 0, 0, 1)" stroke-width="1.5"></path><path d="M93.45 343.96L93.45 343.96" stroke="rgba(0, 0, 0, 1)" stroke-width="1.5"></path><path d="M93.45 343.96L217.52 341.77" stroke="rgba(0, 0, 0, 1)" stroke-width="1.5"></path><path d="M93.45 343.96L221.81 492.02" stroke="rgba(0, 0, 0, 1)" stroke-width="1.5"></path><path d="M93.45 343.96L48.3 543.64" stroke="rgba(0, 0, 0, 1)" stroke-width="1.5"></path><path d="M93.45 343.96L371.2 380.35" stroke="rgba(0, 0, 0, 1)" stroke-width="1.5"></path><path d="M48.3 543.64L48.3 543.64" stroke="rgba(0, 0, 0, 1)" stroke-width="1.5"></path><path d="M48.3 543.64L47.37 648.09" stroke="rgba(0, 0, 0, 1)" stroke-width="1.5"></path><path d="M48.3 543.64L221.81 492.02" stroke="rgba(0, 0, 0, 1)" stroke-width="1.5"></path><path d="M47.37 648.09L47.37 648.09" stroke="rgba(0, 0, 0, 1)" stroke-width="1.5"></path><path d="M47.37 648.09L197.45 711.59" stroke="rgba(0, 0, 0, 1)" stroke-width="1.5"></path><path d="M47.37 648.09L221.81 492.02" stroke="rgba(0, 0, 0, 1)" stroke-width="1.5"></path><path d="M47.37 648.09L93.45 343.96" stroke="rgba(0, 0, 0, 1)" stroke-width="1.5"></path><path d="M217.52 341.77L217.52 341.77" stroke="rgba(0, 0, 0, 1)" stroke-width="1.5"></path><path d="M217.52 341.77L221.81 492.02" stroke="rgba(0, 0, 0, 1)" stroke-width="1.5"></path><path d="M217.52 341.77L371.2 380.35" stroke="rgba(0, 0, 0, 1)" stroke-width="1.5"></path><path d="M217.52 341.77L405.61 492.32" stroke="rgba(0, 0, 0, 1)" stroke-width="1.5"></path><path d="M217.52 341.77L48.3 543.64" stroke="rgba(0, 0, 0, 1)" stroke-width="1.5"></path><path d="M217.52 341.77L-78.31 341.81" stroke="rgba(0, 0, 0, 1)" stroke-width="1.5"></path><path d="M221.81 492.02L221.81 492.02" stroke="rgba(0, 0, 0, 1)" stroke-width="1.5"></path><path d="M197.45 711.59L197.45 711.59" stroke="rgba(0, 0, 0, 1)" stroke-width="1.5"></path><path d="M371.2 380.35L371.2 380.35" stroke="rgba(0, 0, 0, 1)" stroke-width="1.5"></path><path d="M371.2 380.35L405.61 492.32" stroke="rgba(0, 0, 0, 1)" stroke-width="1.5"></path><path d="M371.2 380.35L221.81 492.02" stroke="rgba(0, 0, 0, 1)" stroke-width="1.5"></path><path d="M371.2 380.35L560.26 361.31" stroke="rgba(0, 0, 0, 1)" stroke-width="1.5"></path><path d="M371.2 380.35L509.57 513.36" stroke="rgba(0, 0, 0, 1)" stroke-width="1.5"></path><path d="M371.2 380.35L356.88 655.96" stroke="rgba(0, 0, 0, 1)" stroke-width="1.5"></path><path d="M405.61 492.32L405.61 492.32" stroke="rgba(0, 0, 0, 1)" stroke-width="1.5"></path><path d="M405.61 492.32L509.57 513.36" stroke="rgba(0, 0, 0, 1)" stroke-width="1.5"></path><path d="M405.61 492.32L356.88 655.96" stroke="rgba(0, 0, 0, 1)" stroke-width="1.5"></path><path d="M405.61 492.32L221.81 492.02" stroke="rgba(0, 0, 0, 1)" stroke-width="1.5"></path><path d="M356.88 655.96L356.88 655.96" stroke="rgba(0, 0, 0, 1)" stroke-width="1.5"></path><path d="M356.88 655.96L197.45 711.59" stroke="rgba(0, 0, 0, 1)" stroke-width="1.5"></path><path d="M356.88 655.96L555.02 709.51" stroke="rgba(0, 0, 0, 1)" stroke-width="1.5"></path><path d="M356.88 655.96L509.57 513.36" stroke="rgba(0, 0, 0, 1)" stroke-width="1.5"></path><path d="M356.88 655.96L221.81 492.02" stroke="rgba(0, 0, 0, 1)" stroke-width="1.5"></path><path d="M560.26 361.31L560.26 361.31" stroke="rgba(0, 0, 0, 1)" stroke-width="1.5"></path><path d="M560.26 361.31L711.62 394.84" stroke="rgba(0, 0, 0, 1)" stroke-width="1.5"></path><path d="M560.26 361.31L509.57 513.36" stroke="rgba(0, 0, 0, 1)" stroke-width="1.5"></path><path d="M560.26 361.31L405.61 492.32" stroke="rgba(0, 0, 0, 1)" stroke-width="1.5"></path><path d="M560.26 361.31L671.14 537.75" stroke="rgba(0, 0, 0, 1)" stroke-width="1.5"></path><path d="M509.57 513.36L509.57 513.36" stroke="rgba(0, 0, 0, 1)" stroke-width="1.5"></path><path d="M509.57 513.36L671.14 537.75" stroke="rgba(0, 0, 0, 1)" stroke-width="1.5"></path><path d="M509.57 513.36L555.02 709.51" stroke="rgba(0, 0, 0, 1)" stroke-width="1.5"></path><path d="M555.02 709.51L555.02 709.51" stroke="rgba(0, 0, 0, 1)" stroke-width="1.5"></path><path d="M555.02 709.51L652.87 701.68" stroke="rgba(0, 0, 0, 1)" stroke-width="1.5"></path><path d="M555.02 709.51L671.14 537.75" stroke="rgba(0, 0, 0, 1)" stroke-width="1.5"></path><path d="M555.02 709.51L405.61 492.32" stroke="rgba(0, 0, 0, 1)" stroke-width="1.5"></path><path d="M555.02 709.51L843.85 710.09" stroke="rgba(0, 0, 0, 1)" stroke-width="1.5"></path><path d="M698.85 202.22L698.85 202.22" stroke="rgba(0, 0, 0, 1)" stroke-width="1.5"></path><path d="M698.85 202.22L837.87 189.83" stroke="rgba(0, 0, 0, 1)" stroke-width="1.5"></path><path d="M698.85 202.22L811.29 350.64" stroke="rgba(0, 0, 0, 1)" stroke-width="1.5"></path><path d="M698.85 202.22L711.62 394.84" stroke="rgba(0, 0, 0, 1)" stroke-width="1.5"></path><path d="M698.85 202.22L560.26 361.31" stroke="rgba(0, 0, 0, 1)" stroke-width="1.5"></path><path d="M698.85 202.22L948.98 195.3" stroke="rgba(0, 0, 0, 1)" stroke-width="1.5"></path><path d="M711.62 394.84L711.62 394.84" stroke="rgba(0, 0, 0, 1)" stroke-width="1.5"></path><path d="M711.62 394.84L811.29 350.64" stroke="rgba(0, 0, 0, 1)" stroke-width="1.5"></path><path d="M711.62 394.84L671.14 537.75" stroke="rgba(0, 0, 0, 1)" stroke-width="1.5"></path><path d="M711.62 394.84L829.61 489.19" stroke="rgba(0, 0, 0, 1)" stroke-width="1.5"></path><path d="M711.62 394.84L509.57 513.36" stroke="rgba(0, 0, 0, 1)" stroke-width="1.5"></path><path d="M671.14 537.75L671.14 537.75" stroke="rgba(0, 0, 0, 1)" stroke-width="1.5"></path><path d="M671.14 537.75L652.87 701.68" stroke="rgba(0, 0, 0, 1)" stroke-width="1.5"></path><path d="M671.14 537.75L829.61 489.19" stroke="rgba(0, 0, 0, 1)" stroke-width="1.5"></path><path d="M652.87 701.68L652.87 701.68" stroke="rgba(0, 0, 0, 1)" stroke-width="1.5"></path><path d="M652.87 701.68L843.85 710.09" stroke="rgba(0, 0, 0, 1)" stroke-width="1.5"></path><path d="M837.87 189.83L837.87 189.83" stroke="rgba(0, 0, 0, 1)" stroke-width="1.5"></path><path d="M837.87 189.83L948.98 195.3" stroke="rgba(0, 0, 0, 1)" stroke-width="1.5"></path><path d="M837.87 189.83L811.29 350.64" stroke="rgba(0, 0, 0, 1)" stroke-width="1.5"></path><path d="M837.87 189.83L988.8 105.58" stroke="rgba(0, 0, 0, 1)" stroke-width="1.5"></path><path d="M837.87 189.83L958.57 360.11" stroke="rgba(0, 0, 0, 1)" stroke-width="1.5"></path><path d="M811.29 350.64L811.29 350.64" stroke="rgba(0, 0, 0, 1)" stroke-width="1.5"></path><path d="M811.29 350.64L829.61 489.19" stroke="rgba(0, 0, 0, 1)" stroke-width="1.5"></path><path d="M811.29 350.64L958.57 360.11" stroke="rgba(0, 0, 0, 1)" stroke-width="1.5"></path><path d="M829.61 489.19L829.61 489.19" stroke="rgba(0, 0, 0, 1)" stroke-width="1.5"></path><path d="M829.61 489.19L986.49 550.04" stroke="rgba(0, 0, 0, 1)" stroke-width="1.5"></path><path d="M829.61 489.19L958.57 360.11" stroke="rgba(0, 0, 0, 1)" stroke-width="1.5"></path><path d="M843.85 710.09L843.85 710.09" stroke="rgba(0, 0, 0, 1)" stroke-width="1.5"></path><path d="M843.85 710.09L956.75 669.51" stroke="rgba(0, 0, 0, 1)" stroke-width="1.5"></path><path d="M843.85 710.09L986.49 550.04" stroke="rgba(0, 0, 0, 1)" stroke-width="1.5"></path><path d="M843.85 710.09L829.61 489.19" stroke="rgba(0, 0, 0, 1)" stroke-width="1.5"></path><path d="M843.85 710.09L671.14 537.75" stroke="rgba(0, 0, 0, 1)" stroke-width="1.5"></path><path d="M843.85 710.09L1102.88 692.74" stroke="rgba(0, 0, 0, 1)" stroke-width="1.5"></path><path d="M988.8 105.58L988.8 105.58" stroke="rgba(0, 0, 0, 1)" stroke-width="1.5"></path><path d="M988.8 105.58L948.98 195.3" stroke="rgba(0, 0, 0, 1)" stroke-width="1.5"></path><path d="M988.8 105.58L1134.64 61.73" stroke="rgba(0, 0, 0, 1)" stroke-width="1.5"></path><path d="M948.98 195.3L948.98 195.3" stroke="rgba(0, 0, 0, 1)" stroke-width="1.5"></path><path d="M958.57 360.11L958.57 360.11" stroke="rgba(0, 0, 0, 1)" stroke-width="1.5"></path><path d="M958.57 360.11L948.98 195.3" stroke="rgba(0, 0, 0, 1)" stroke-width="1.5"></path><path d="M958.57 360.11L1138.99 346.27" stroke="rgba(0, 0, 0, 1)" stroke-width="1.5"></path><path d="M986.49 550.04L986.49 550.04" stroke="rgba(0, 0, 0, 1)" stroke-width="1.5"></path><path d="M986.49 550.04L956.75 669.51" stroke="rgba(0, 0, 0, 1)" stroke-width="1.5"></path><path d="M986.49 550.04L1139.31 504.38" stroke="rgba(0, 0, 0, 1)" stroke-width="1.5"></path><path d="M986.49 550.04L1102.88 692.74" stroke="rgba(0, 0, 0, 1)" stroke-width="1.5"></path><path d="M986.49 550.04L958.57 360.11" stroke="rgba(0, 0, 0, 1)" stroke-width="1.5"></path><path d="M956.75 669.51L956.75 669.51" stroke="rgba(0, 0, 0, 1)" stroke-width="1.5"></path><path d="M1139.14 -89.24L1139.14 -89.24" stroke="rgba(0, 0, 0, 1)" stroke-width="1.5"></path><path d="M1139.14 -89.24L1134.64 61.73" stroke="rgba(0, 0, 0, 1)" stroke-width="1.5"></path><path d="M1139.14 -89.24L1298.52 -106.1" stroke="rgba(0, 0, 0, 1)" stroke-width="1.5"></path><path d="M1139.14 -89.24L1308.53 67.56" stroke="rgba(0, 0, 0, 1)" stroke-width="1.5"></path><path d="M1134.64 61.73L1134.64 61.73" stroke="rgba(0, 0, 0, 1)" stroke-width="1.5"></path><path d="M1138.99 346.27L1138.99 346.27" stroke="rgba(0, 0, 0, 1)" stroke-width="1.5"></path><path d="M1138.99 346.27L1289.96 379.35" stroke="rgba(0, 0, 0, 1)" stroke-width="1.5"></path><path d="M1138.99 346.27L1139.31 504.38" stroke="rgba(0, 0, 0, 1)" stroke-width="1.5"></path><path d="M1138.99 346.27L1304.01 252.76" stroke="rgba(0, 0, 0, 1)" stroke-width="1.5"></path><path d="M1139.31 504.38L1139.31 504.38" stroke="rgba(0, 0, 0, 1)" stroke-width="1.5"></path><path d="M1139.31 504.38L1251.55 561.5" stroke="rgba(0, 0, 0, 1)" stroke-width="1.5"></path><path d="M1139.31 504.38L1102.88 692.74" stroke="rgba(0, 0, 0, 1)" stroke-width="1.5"></path><path d="M1139.31 504.38L1289.96 379.35" stroke="rgba(0, 0, 0, 1)" stroke-width="1.5"></path><path d="M1139.31 504.38L958.57 360.11" stroke="rgba(0, 0, 0, 1)" stroke-width="1.5"></path><path d="M1102.88 692.74L1102.88 692.74" stroke="rgba(0, 0, 0, 1)" stroke-width="1.5"></path><path d="M1102.88 692.74L956.75 669.51" stroke="rgba(0, 0, 0, 1)" stroke-width="1.5"></path><path d="M1102.88 692.74L1274.95 708.45" stroke="rgba(0, 0, 0, 1)" stroke-width="1.5"></path><path d="M1298.52 -106.1L1298.52 -106.1" stroke="rgba(0, 0, 0, 1)" stroke-width="1.5"></path><path d="M1298.52 -106.1L1308.53 67.56" stroke="rgba(0, 0, 0, 1)" stroke-width="1.5"></path><path d="M1298.52 -106.1L1134.64 61.73" stroke="rgba(0, 0, 0, 1)" stroke-width="1.5"></path><path d="M1298.52 -106.1L1462.32 63.71" stroke="rgba(0, 0, 0, 1)" stroke-width="1.5"></path><path d="M1298.52 -106.1L1585.07 -66.13" stroke="rgba(0, 0, 0, 1)" stroke-width="1.5"></path><path d="M1298.52 -106.1L1563.45 74.56" stroke="rgba(0, 0, 0, 1)" stroke-width="1.5"></path><path d="M1308.53 67.56L1308.53 67.56" stroke="rgba(0, 0, 0, 1)" stroke-width="1.5"></path><path d="M1308.53 67.56L1462.32 63.71" stroke="rgba(0, 0, 0, 1)" stroke-width="1.5"></path><path d="M1308.53 67.56L1134.64 61.73" stroke="rgba(0, 0, 0, 1)" stroke-width="1.5"></path><path d="M1308.53 67.56L1304.01 252.76" stroke="rgba(0, 0, 0, 1)" stroke-width="1.5"></path><path d="M1304.01 252.76L1304.01 252.76" stroke="rgba(0, 0, 0, 1)" stroke-width="1.5"></path><path d="M1304.01 252.76L1289.96 379.35" stroke="rgba(0, 0, 0, 1)" stroke-width="1.5"></path><path d="M1304.01 252.76L1462.32 63.71" stroke="rgba(0, 0, 0, 1)" stroke-width="1.5"></path><path d="M1304.01 252.76L1134.64 61.73" stroke="rgba(0, 0, 0, 1)" stroke-width="1.5"></path><path d="M1304.01 252.76L1537.53 364.61" stroke="rgba(0, 0, 0, 1)" stroke-width="1.5"></path><path d="M1289.96 379.35L1289.96 379.35" stroke="rgba(0, 0, 0, 1)" stroke-width="1.5"></path><path d="M1251.55 561.5L1251.55 561.5" stroke="rgba(0, 0, 0, 1)" stroke-width="1.5"></path><path d="M1251.55 561.5L1274.95 708.45" stroke="rgba(0, 0, 0, 1)" stroke-width="1.5"></path><path d="M1251.55 561.5L1401.53 543.69" stroke="rgba(0, 0, 0, 1)" stroke-width="1.5"></path><path d="M1251.55 561.5L1289.96 379.35" stroke="rgba(0, 0, 0, 1)" stroke-width="1.5"></path><path d="M1251.55 561.5L1102.88 692.74" stroke="rgba(0, 0, 0, 1)" stroke-width="1.5"></path><path d="M1274.95 708.45L1274.95 708.45" stroke="rgba(0, 0, 0, 1)" stroke-width="1.5"></path><path d="M1274.95 708.45L1412.11 679.9" stroke="rgba(0, 0, 0, 1)" stroke-width="1.5"></path><path d="M1274.95 708.45L1401.53 543.69" stroke="rgba(0, 0, 0, 1)" stroke-width="1.5"></path><path d="M1462.32 63.71L1462.32 63.71" stroke="rgba(0, 0, 0, 1)" stroke-width="1.5"></path><path d="M1462.32 63.71L1563.45 74.56" stroke="rgba(0, 0, 0, 1)" stroke-width="1.5"></path><path d="M1462.32 63.71L1585.07 -66.13" stroke="rgba(0, 0, 0, 1)" stroke-width="1.5"></path><path d="M1462.32 63.71L1580.98 234.24" stroke="rgba(0, 0, 0, 1)" stroke-width="1.5"></path><path d="M1401.53 543.69L1401.53 543.69" stroke="rgba(0, 0, 0, 1)" stroke-width="1.5"></path><path d="M1401.53 543.69L1412.11 679.9" stroke="rgba(0, 0, 0, 1)" stroke-width="1.5"></path><path d="M1412.11 679.9L1412.11 679.9" stroke="rgba(0, 0, 0, 1)" stroke-width="1.5"></path><path d="M1412.11 679.9L1575.36 705.3" stroke="rgba(0, 0, 0, 1)" stroke-width="1.5"></path><path d="M1412.11 679.9L1251.55 561.5" stroke="rgba(0, 0, 0, 1)" stroke-width="1.5"></path><path d="M1412.11 679.9L1560.56 544.93" stroke="rgba(0, 0, 0, 1)" stroke-width="1.5"></path><path d="M1585.07 -66.13L1585.07 -66.13" stroke="rgba(0, 0, 0, 1)" stroke-width="1.5"></path><path d="M1585.07 -66.13L1563.45 74.56" stroke="rgba(0, 0, 0, 1)" stroke-width="1.5"></path><path d="M1585.07 -66.13L1580.98 234.24" stroke="rgba(0, 0, 0, 1)" stroke-width="1.5"></path><path d="M1585.07 -66.13L1308.53 67.56" stroke="rgba(0, 0, 0, 1)" stroke-width="1.5"></path><path d="M1563.45 74.56L1563.45 74.56" stroke="rgba(0, 0, 0, 1)" stroke-width="1.5"></path><path d="M1580.98 234.24L1580.98 234.24" stroke="rgba(0, 0, 0, 1)" stroke-width="1.5"></path><path d="M1580.98 234.24L1537.53 364.61" stroke="rgba(0, 0, 0, 1)" stroke-width="1.5"></path><path d="M1580.98 234.24L1563.45 74.56" stroke="rgba(0, 0, 0, 1)" stroke-width="1.5"></path><path d="M1580.98 234.24L1304.01 252.76" stroke="rgba(0, 0, 0, 1)" stroke-width="1.5"></path><path d="M1580.98 234.24L1560.56 544.93" stroke="rgba(0, 0, 0, 1)" stroke-width="1.5"></path><path d="M1537.53 364.61L1537.53 364.61" stroke="rgba(0, 0, 0, 1)" stroke-width="1.5"></path><path d="M1537.53 364.61L1560.56 544.93" stroke="rgba(0, 0, 0, 1)" stroke-width="1.5"></path><path d="M1537.53 364.61L1401.53 543.69" stroke="rgba(0, 0, 0, 1)" stroke-width="1.5"></path><path d="M1537.53 364.61L1289.96 379.35" stroke="rgba(0, 0, 0, 1)" stroke-width="1.5"></path><path d="M1560.56 544.93L1560.56 544.93" stroke="rgba(0, 0, 0, 1)" stroke-width="1.5"></path><path d="M1560.56 544.93L1401.53 543.69" stroke="rgba(0, 0, 0, 1)" stroke-width="1.5"></path><path d="M1560.56 544.93L1575.36 705.3" stroke="rgba(0, 0, 0, 1)" stroke-width="1.5"></path><path d="M1560.56 544.93L1251.55 561.5" stroke="rgba(0, 0, 0, 1)" stroke-width="1.5"></path><path d="M1575.36 705.3L1575.36 705.3" stroke="rgba(0, 0, 0, 1)" stroke-width="1.5"></path><path d="M1575.36 705.3L1401.53 543.69" stroke="rgba(0, 0, 0, 1)" stroke-width="1.5"></path><path d="M1575.36 705.3L1274.95 708.45" stroke="rgba(0, 0, 0, 1)" stroke-width="1.5"></path><circle r="5" cx="-78.31" cy="341.81" fill="rgba(0, 0, 0, 1)"></circle><circle r="5" cx="-44.81" cy="504.88" fill="rgba(0, 0, 0, 1)"></circle><circle r="5" cx="-100.8" cy="644.93" fill="rgba(0, 0, 0, 1)"></circle><circle r="5" cx="93.45" cy="343.96" fill="rgba(0, 0, 0, 1)"></circle><circle r="5" cx="48.3" cy="543.64" fill="rgba(0, 0, 0, 1)"></circle><circle r="5" cx="47.37" cy="648.09" fill="rgba(0, 0, 0, 1)"></circle><circle r="5" cx="217.52" cy="341.77" fill="rgba(0, 0, 0, 1)"></circle><circle r="5" cx="221.81" cy="492.02" fill="rgba(0, 0, 0, 1)"></circle><circle r="5" cx="197.45" cy="711.59" fill="rgba(0, 0, 0, 1)"></circle><circle r="5" cx="371.2" cy="380.35" fill="rgba(0, 0, 0, 1)"></circle><circle r="5" cx="405.61" cy="492.32" fill="rgba(0, 0, 0, 1)"></circle><circle r="5" cx="356.88" cy="655.96" fill="rgba(0, 0, 0, 1)"></circle><circle r="5" cx="560.26" cy="361.31" fill="rgba(0, 0, 0, 1)"></circle><circle r="5" cx="509.57" cy="513.36" fill="rgba(0, 0, 0, 1)"></circle><circle r="5" cx="555.02" cy="709.51" fill="rgba(0, 0, 0, 1)"></circle><circle r="5" cx="698.85" cy="202.22" fill="rgba(0, 0, 0, 1)"></circle><circle r="5" cx="711.62" cy="394.84" fill="rgba(0, 0, 0, 1)"></circle><circle r="5" cx="671.14" cy="537.75" fill="rgba(0, 0, 0, 1)"></circle><circle r="5" cx="652.87" cy="701.68" fill="rgba(0, 0, 0, 1)"></circle><circle r="5" cx="837.87" cy="189.83" fill="rgba(0, 0, 0, 1)"></circle><circle r="5" cx="811.29" cy="350.64" fill="rgba(0, 0, 0, 1)"></circle><circle r="5" cx="829.61" cy="489.19" fill="rgba(0, 0, 0, 1)"></circle><circle r="5" cx="843.85" cy="710.09" fill="rgba(0, 0, 0, 1)"></circle><circle r="5" cx="988.8" cy="105.58" fill="rgba(0, 0, 0, 1)"></circle><circle r="5" cx="948.98" cy="195.3" fill="rgba(0, 0, 0, 1)"></circle><circle r="5" cx="958.57" cy="360.11" fill="rgba(0, 0, 0, 1)"></circle><circle r="5" cx="986.49" cy="550.04" fill="rgba(0, 0, 0, 1)"></circle><circle r="5" cx="956.75" cy="669.51" fill="rgba(0, 0, 0, 1)"></circle><circle r="5" cx="1139.14" cy="-89.24" fill="rgba(0, 0, 0, 1)"></circle><circle r="5" cx="1134.64" cy="61.73" fill="rgba(0, 0, 0, 1)"></circle><circle r="5" cx="1138.99" cy="346.27" fill="rgba(0, 0, 0, 1)"></circle><circle r="5" cx="1139.31" cy="504.38" fill="rgba(0, 0, 0, 1)"></circle><circle r="5" cx="1102.88" cy="692.74" fill="rgba(0, 0, 0, 1)"></circle><circle r="5" cx="1298.52" cy="-106.1" fill="rgba(0, 0, 0, 1)"></circle><circle r="5" cx="1308.53" cy="67.56" fill="rgba(0, 0, 0, 1)"></circle><circle r="5" cx="1304.01" cy="252.76" fill="rgba(0, 0, 0, 1)"></circle><circle r="5" cx="1289.96" cy="379.35" fill="rgba(0, 0, 0, 1)"></circle><circle r="5" cx="1251.55" cy="561.5" fill="rgba(0, 0, 0, 1)"></circle><circle r="5" cx="1274.95" cy="708.45" fill="rgba(0, 0, 0, 1)"></circle><circle r="5" cx="1462.32" cy="63.71" fill="rgba(0, 0, 0, 1)"></circle><circle r="5" cx="1401.53" cy="543.69" fill="rgba(0, 0, 0, 1)"></circle><circle r="5" cx="1412.11" cy="679.9" fill="rgba(0, 0, 0, 1)"></circle><circle r="5" cx="1585.07" cy="-66.13" fill="rgba(0, 0, 0, 1)"></circle><circle r="5" cx="1563.45" cy="74.56" fill="rgba(0, 0, 0, 1)"></circle><circle r="5" cx="1580.98" cy="234.24" fill="rgba(0, 0, 0, 1)"></circle><circle r="5" cx="1537.53" cy="364.61" fill="rgba(0, 0, 0, 1)"></circle><circle r="5" cx="1560.56" cy="544.93" fill="rgba(0, 0, 0, 1)"></circle><circle r="5" cx="1575.36" cy="705.3" fill="rgba(0, 0, 0, 1)"></circle><path d="M85.59 509.42L85.59 509.42" stroke="hsl(191.89999999999998, 74.9%, 65%)" stroke-width="1.5"></path><path d="M85.59 509.42L191.08 513.18" stroke="hsl(191.89999999999998, 74.9%, 65%)" stroke-width="1.5"></path><path d="M85.59 509.42L53.93 668.15" stroke="hsl(191.89999999999998, 74.9%, 65%)" stroke-width="1.5"></path><path d="M85.59 509.42L-92.04 499.32" stroke="hsl(191.89999999999998, 74.9%, 65%)" stroke-width="1.5"></path><path d="M85.59 509.42L-76.64 647.64" stroke="hsl(191.89999999999998, 74.9%, 65%)" stroke-width="1.5"></path><path d="M85.59 509.42L192.55 702.94" stroke="hsl(191.89999999999998, 74.9%, 65%)" stroke-width="1.5"></path><path d="M192.55 702.94L192.55 702.94" stroke="hsl(191.89999999999998, 74.9%, 65%)" stroke-width="1.5"></path><path d="M192.55 702.94L53.93 668.15" stroke="hsl(191.89999999999998, 74.9%, 65%)" stroke-width="1.5"></path><path d="M839.77 558.91L839.77 558.91" stroke="hsl(191.89999999999998, 74.9%, 65%)" stroke-width="1.5"></path><path d="M839.77 558.91L943.16 489.15" stroke="hsl(191.89999999999998, 74.9%, 65%)" stroke-width="1.5"></path><path d="M839.77 558.91L938.77 655.41" stroke="hsl(191.89999999999998, 74.9%, 65%)" stroke-width="1.5"></path><path d="M969.47 360.11L969.47 360.11" stroke="hsl(191.89999999999998, 74.9%, 65%)" stroke-width="1.5"></path><path d="M969.47 360.11L943.16 489.15" stroke="hsl(191.89999999999998, 74.9%, 65%)" stroke-width="1.5"></path><path d="M969.47 360.11L1120.7 373.97" stroke="hsl(191.89999999999998, 74.9%, 65%)" stroke-width="1.5"></path><path d="M969.47 360.11L800.51 401.87" stroke="hsl(191.89999999999998, 74.9%, 65%)" stroke-width="1.5"></path><path d="M969.47 360.11L1098.35 526.44" stroke="hsl(191.89999999999998, 74.9%, 65%)" stroke-width="1.5"></path><path d="M969.47 360.11L1128.04 188.54" stroke="hsl(191.89999999999998, 74.9%, 65%)" stroke-width="1.5"></path><path d="M1090.24 660.11L1090.24 660.11" stroke="hsl(191.89999999999998, 74.9%, 65%)" stroke-width="1.5"></path><path d="M1090.24 660.11L1098.35 526.44" stroke="hsl(191.89999999999998, 74.9%, 65%)" stroke-width="1.5"></path><path d="M1090.24 660.11L938.77 655.41" stroke="hsl(191.89999999999998, 74.9%, 65%)" stroke-width="1.5"></path><path d="M1090.24 660.11L1238.24 692.78" stroke="hsl(191.89999999999998, 74.9%, 65%)" stroke-width="1.5"></path><path d="M1090.24 660.11L943.16 489.15" stroke="hsl(191.89999999999998, 74.9%, 65%)" stroke-width="1.5"></path><path d="M1251.81 90.77L1251.81 90.77" stroke="hsl(191.89999999999998, 74.9%, 65%)" stroke-width="1.5"></path><path d="M1251.81 90.77L1137.26 83.17" stroke="hsl(191.89999999999998, 74.9%, 65%)" stroke-width="1.5"></path><path d="M1251.81 90.77L1279.06 206.71" stroke="hsl(191.89999999999998, 74.9%, 65%)" stroke-width="1.5"></path><path d="M1251.81 90.77L1128.04 188.54" stroke="hsl(191.89999999999998, 74.9%, 65%)" stroke-width="1.5"></path><path d="M1251.81 90.77L1426.27 107.89" stroke="hsl(191.89999999999998, 74.9%, 65%)" stroke-width="1.5"></path><path d="M1259.92 365.26L1259.92 365.26" stroke="hsl(191.89999999999998, 74.9%, 65%)" stroke-width="1.5"></path><path d="M1259.92 365.26L1292.84 490.23" stroke="hsl(191.89999999999998, 74.9%, 65%)" stroke-width="1.5"></path><path d="M1259.92 365.26L1120.7 373.97" stroke="hsl(191.89999999999998, 74.9%, 65%)" stroke-width="1.5"></path><path d="M1259.92 365.26L1412.84 353.04" stroke="hsl(191.89999999999998, 74.9%, 65%)" stroke-width="1.5"></path><path d="M1426.27 107.89L1426.27 107.89" stroke="hsl(191.89999999999998, 74.9%, 65%)" stroke-width="1.5"></path><path d="M1426.27 107.89L1446.03 225.87" stroke="hsl(191.89999999999998, 74.9%, 65%)" stroke-width="1.5"></path><path d="M1426.27 107.89L1395.5 -40.59" stroke="hsl(191.89999999999998, 74.9%, 65%)" stroke-width="1.5"></path><path d="M1426.27 107.89L1565.69 46.76" stroke="hsl(191.89999999999998, 74.9%, 65%)" stroke-width="1.5"></path><path d="M-92.04 499.32L-92.04 499.32" stroke="hsl(191.89999999999998, 74.9%, 65%)" stroke-width="1.5"></path><path d="M-92.04 499.32L-76.64 647.64" stroke="hsl(191.89999999999998, 74.9%, 65%)" stroke-width="1.5"></path><path d="M-92.04 499.32L53.93 668.15" stroke="hsl(191.89999999999998, 74.9%, 65%)" stroke-width="1.5"></path><path d="M-76.64 647.64L-76.64 647.64" stroke="hsl(191.89999999999998, 74.9%, 65%)" stroke-width="1.5"></path><path d="M-76.64 647.64L53.93 668.15" stroke="hsl(191.89999999999998, 74.9%, 65%)" stroke-width="1.5"></path><path d="M53.93 668.15L53.93 668.15" stroke="hsl(191.89999999999998, 74.9%, 65%)" stroke-width="1.5"></path><path d="M53.93 668.15L191.08 513.18" stroke="hsl(191.89999999999998, 74.9%, 65%)" stroke-width="1.5"></path><path d="M191.08 513.18L191.08 513.18" stroke="hsl(191.89999999999998, 74.9%, 65%)" stroke-width="1.5"></path><path d="M191.08 513.18L344.74 491.67" stroke="hsl(191.89999999999998, 74.9%, 65%)" stroke-width="1.5"></path><path d="M191.08 513.18L192.55 702.94" stroke="hsl(191.89999999999998, 74.9%, 65%)" stroke-width="1.5"></path><path d="M344.74 491.67L344.74 491.67" stroke="hsl(191.89999999999998, 74.9%, 65%)" stroke-width="1.5"></path><path d="M344.74 491.67L367.48 678.83" stroke="hsl(191.89999999999998, 74.9%, 65%)" stroke-width="1.5"></path><path d="M344.74 491.67L531.12 560.63" stroke="hsl(191.89999999999998, 74.9%, 65%)" stroke-width="1.5"></path><path d="M344.74 491.67L85.59 509.42" stroke="hsl(191.89999999999998, 74.9%, 65%)" stroke-width="1.5"></path><path d="M344.74 491.67L192.55 702.94" stroke="hsl(191.89999999999998, 74.9%, 65%)" stroke-width="1.5"></path><path d="M344.74 491.67L526.17 689.97" stroke="hsl(191.89999999999998, 74.9%, 65%)" stroke-width="1.5"></path><path d="M367.48 678.83L367.48 678.83" stroke="hsl(191.89999999999998, 74.9%, 65%)" stroke-width="1.5"></path><path d="M367.48 678.83L526.17 689.97" stroke="hsl(191.89999999999998, 74.9%, 65%)" stroke-width="1.5"></path><path d="M367.48 678.83L192.55 702.94" stroke="hsl(191.89999999999998, 74.9%, 65%)" stroke-width="1.5"></path><path d="M367.48 678.83L531.12 560.63" stroke="hsl(191.89999999999998, 74.9%, 65%)" stroke-width="1.5"></path><path d="M367.48 678.83L191.08 513.18" stroke="hsl(191.89999999999998, 74.9%, 65%)" stroke-width="1.5"></path><path d="M367.48 678.83L53.93 668.15" stroke="hsl(191.89999999999998, 74.9%, 65%)" stroke-width="1.5"></path><path d="M531.12 560.63L531.12 560.63" stroke="hsl(191.89999999999998, 74.9%, 65%)" stroke-width="1.5"></path><path d="M531.12 560.63L526.17 689.97" stroke="hsl(191.89999999999998, 74.9%, 65%)" stroke-width="1.5"></path><path d="M531.12 560.63L666.1 493.31" stroke="hsl(191.89999999999998, 74.9%, 65%)" stroke-width="1.5"></path><path d="M526.17 689.97L526.17 689.97" stroke="hsl(191.89999999999998, 74.9%, 65%)" stroke-width="1.5"></path><path d="M526.17 689.97L708.84 697.3" stroke="hsl(191.89999999999998, 74.9%, 65%)" stroke-width="1.5"></path><path d="M526.17 689.97L666.1 493.31" stroke="hsl(191.89999999999998, 74.9%, 65%)" stroke-width="1.5"></path><path d="M666.1 493.31L666.1 493.31" stroke="hsl(191.89999999999998, 74.9%, 65%)" stroke-width="1.5"></path><path d="M666.1 493.31L800.51 401.87" stroke="hsl(191.89999999999998, 74.9%, 65%)" stroke-width="1.5"></path><path d="M666.1 493.31L839.77 558.91" stroke="hsl(191.89999999999998, 74.9%, 65%)" stroke-width="1.5"></path><path d="M666.1 493.31L708.84 697.3" stroke="hsl(191.89999999999998, 74.9%, 65%)" stroke-width="1.5"></path><path d="M666.1 493.31L818.5 705.53" stroke="hsl(191.89999999999998, 74.9%, 65%)" stroke-width="1.5"></path><path d="M708.84 697.3L708.84 697.3" stroke="hsl(191.89999999999998, 74.9%, 65%)" stroke-width="1.5"></path><path d="M708.84 697.3L818.5 705.53" stroke="hsl(191.89999999999998, 74.9%, 65%)" stroke-width="1.5"></path><path d="M708.84 697.3L839.77 558.91" stroke="hsl(191.89999999999998, 74.9%, 65%)" stroke-width="1.5"></path><path d="M708.84 697.3L531.12 560.63" stroke="hsl(191.89999999999998, 74.9%, 65%)" stroke-width="1.5"></path><path d="M800.51 401.87L800.51 401.87" stroke="hsl(191.89999999999998, 74.9%, 65%)" stroke-width="1.5"></path><path d="M800.51 401.87L839.77 558.91" stroke="hsl(191.89999999999998, 74.9%, 65%)" stroke-width="1.5"></path><path d="M800.51 401.87L943.16 489.15" stroke="hsl(191.89999999999998, 74.9%, 65%)" stroke-width="1.5"></path><path d="M818.5 705.53L818.5 705.53" stroke="hsl(191.89999999999998, 74.9%, 65%)" stroke-width="1.5"></path><path d="M818.5 705.53L938.77 655.41" stroke="hsl(191.89999999999998, 74.9%, 65%)" stroke-width="1.5"></path><path d="M943.16 489.15L943.16 489.15" stroke="hsl(191.89999999999998, 74.9%, 65%)" stroke-width="1.5"></path><path d="M943.16 489.15L1098.35 526.44" stroke="hsl(191.89999999999998, 74.9%, 65%)" stroke-width="1.5"></path><path d="M943.16 489.15L938.77 655.41" stroke="hsl(191.89999999999998, 74.9%, 65%)" stroke-width="1.5"></path><path d="M938.77 655.41L938.77 655.41" stroke="hsl(191.89999999999998, 74.9%, 65%)" stroke-width="1.5"></path><path d="M1137.26 83.17L1137.26 83.17" stroke="hsl(191.89999999999998, 74.9%, 65%)" stroke-width="1.5"></path><path d="M1137.26 83.17L1128.04 188.54" stroke="hsl(191.89999999999998, 74.9%, 65%)" stroke-width="1.5"></path><path d="M1137.26 83.17L1279.06 206.71" stroke="hsl(191.89999999999998, 74.9%, 65%)" stroke-width="1.5"></path><path d="M1137.26 83.17L1279.82 -82.89" stroke="hsl(191.89999999999998, 74.9%, 65%)" stroke-width="1.5"></path><path d="M1137.26 83.17L1395.5 -40.59" stroke="hsl(191.89999999999998, 74.9%, 65%)" stroke-width="1.5"></path><path d="M1137.26 83.17L1426.27 107.89" stroke="hsl(191.89999999999998, 74.9%, 65%)" stroke-width="1.5"></path><path d="M1128.04 188.54L1128.04 188.54" stroke="hsl(191.89999999999998, 74.9%, 65%)" stroke-width="1.5"></path><path d="M1128.04 188.54L1279.06 206.71" stroke="hsl(191.89999999999998, 74.9%, 65%)" stroke-width="1.5"></path><path d="M1128.04 188.54L1120.7 373.97" stroke="hsl(191.89999999999998, 74.9%, 65%)" stroke-width="1.5"></path><path d="M1128.04 188.54L1259.92 365.26" stroke="hsl(191.89999999999998, 74.9%, 65%)" stroke-width="1.5"></path><path d="M1120.7 373.97L1120.7 373.97" stroke="hsl(191.89999999999998, 74.9%, 65%)" stroke-width="1.5"></path><path d="M1120.7 373.97L1098.35 526.44" stroke="hsl(191.89999999999998, 74.9%, 65%)" stroke-width="1.5"></path><path d="M1098.35 526.44L1098.35 526.44" stroke="hsl(191.89999999999998, 74.9%, 65%)" stroke-width="1.5"></path><path d="M1098.35 526.44L1292.84 490.23" stroke="hsl(191.89999999999998, 74.9%, 65%)" stroke-width="1.5"></path><path d="M1098.35 526.44L938.77 655.41" stroke="hsl(191.89999999999998, 74.9%, 65%)" stroke-width="1.5"></path><path d="M1279.82 -82.89L1279.82 -82.89" stroke="hsl(191.89999999999998, 74.9%, 65%)" stroke-width="1.5"></path><path d="M1279.82 -82.89L1395.5 -40.59" stroke="hsl(191.89999999999998, 74.9%, 65%)" stroke-width="1.5"></path><path d="M1279.82 -82.89L1251.81 90.77" stroke="hsl(191.89999999999998, 74.9%, 65%)" stroke-width="1.5"></path><path d="M1279.06 206.71L1279.06 206.71" stroke="hsl(191.89999999999998, 74.9%, 65%)" stroke-width="1.5"></path><path d="M1279.06 206.71L1259.92 365.26" stroke="hsl(191.89999999999998, 74.9%, 65%)" stroke-width="1.5"></path><path d="M1292.84 490.23L1292.84 490.23" stroke="hsl(191.89999999999998, 74.9%, 65%)" stroke-width="1.5"></path><path d="M1292.84 490.23L1412.98 550.03" stroke="hsl(191.89999999999998, 74.9%, 65%)" stroke-width="1.5"></path><path d="M1292.84 490.23L1412.84 353.04" stroke="hsl(191.89999999999998, 74.9%, 65%)" stroke-width="1.5"></path><path d="M1238.24 692.78L1238.24 692.78" stroke="hsl(191.89999999999998, 74.9%, 65%)" stroke-width="1.5"></path><path d="M1238.24 692.78L1292.84 490.23" stroke="hsl(191.89999999999998, 74.9%, 65%)" stroke-width="1.5"></path><path d="M1238.24 692.78L1098.35 526.44" stroke="hsl(191.89999999999998, 74.9%, 65%)" stroke-width="1.5"></path><path d="M1395.5 -40.59L1395.5 -40.59" stroke="hsl(191.89999999999998, 74.9%, 65%)" stroke-width="1.5"></path><path d="M1395.5 -40.59L1565.09 -85.77" stroke="hsl(191.89999999999998, 74.9%, 65%)" stroke-width="1.5"></path><path d="M1446.03 225.87L1446.03 225.87" stroke="hsl(191.89999999999998, 74.9%, 65%)" stroke-width="1.5"></path><path d="M1446.03 225.87L1412.84 353.04" stroke="hsl(191.89999999999998, 74.9%, 65%)" stroke-width="1.5"></path><path d="M1446.03 225.87L1585.87 236.85" stroke="hsl(191.89999999999998, 74.9%, 65%)" stroke-width="1.5"></path><path d="M1412.84 353.04L1412.84 353.04" stroke="hsl(191.89999999999998, 74.9%, 65%)" stroke-width="1.5"></path><path d="M1412.84 353.04L1412.98 550.03" stroke="hsl(191.89999999999998, 74.9%, 65%)" stroke-width="1.5"></path><path d="M1412.84 353.04L1279.06 206.71" stroke="hsl(191.89999999999998, 74.9%, 65%)" stroke-width="1.5"></path><path d="M1412.84 353.04L1610.7 404.05" stroke="hsl(191.89999999999998, 74.9%, 65%)" stroke-width="1.5"></path><path d="M1412.98 550.03L1412.98 550.03" stroke="hsl(191.89999999999998, 74.9%, 65%)" stroke-width="1.5"></path><path d="M1412.98 550.03L1459.17 658.58" stroke="hsl(191.89999999999998, 74.9%, 65%)" stroke-width="1.5"></path><path d="M1412.98 550.03L1238.24 692.78" stroke="hsl(191.89999999999998, 74.9%, 65%)" stroke-width="1.5"></path><path d="M1459.17 658.58L1459.17 658.58" stroke="hsl(191.89999999999998, 74.9%, 65%)" stroke-width="1.5"></path><path d="M1459.17 658.58L1238.24 692.78" stroke="hsl(191.89999999999998, 74.9%, 65%)" stroke-width="1.5"></path><path d="M1459.17 658.58L1292.84 490.23" stroke="hsl(191.89999999999998, 74.9%, 65%)" stroke-width="1.5"></path><path d="M1459.17 658.58L1610.7 404.05" stroke="hsl(191.89999999999998, 74.9%, 65%)" stroke-width="1.5"></path><path d="M1565.09 -85.77L1565.09 -85.77" stroke="hsl(191.89999999999998, 74.9%, 65%)" stroke-width="1.5"></path><path d="M1565.09 -85.77L1565.69 46.76" stroke="hsl(191.89999999999998, 74.9%, 65%)" stroke-width="1.5"></path><path d="M1565.09 -85.77L1426.27 107.89" stroke="hsl(191.89999999999998, 74.9%, 65%)" stroke-width="1.5"></path><path d="M1565.09 -85.77L1279.82 -82.89" stroke="hsl(191.89999999999998, 74.9%, 65%)" stroke-width="1.5"></path><path d="M1565.69 46.76L1565.69 46.76" stroke="hsl(191.89999999999998, 74.9%, 65%)" stroke-width="1.5"></path><path d="M1585.87 236.85L1585.87 236.85" stroke="hsl(191.89999999999998, 74.9%, 65%)" stroke-width="1.5"></path><path d="M1585.87 236.85L1610.7 404.05" stroke="hsl(191.89999999999998, 74.9%, 65%)" stroke-width="1.5"></path><path d="M1585.87 236.85L1565.69 46.76" stroke="hsl(191.89999999999998, 74.9%, 65%)" stroke-width="1.5"></path><path d="M1585.87 236.85L1426.27 107.89" stroke="hsl(191.89999999999998, 74.9%, 65%)" stroke-width="1.5"></path><path d="M1585.87 236.85L1412.84 353.04" stroke="hsl(191.89999999999998, 74.9%, 65%)" stroke-width="1.5"></path><path d="M1585.87 236.85L1279.06 206.71" stroke="hsl(191.89999999999998, 74.9%, 65%)" stroke-width="1.5"></path><path d="M1610.7 404.05L1610.7 404.05" stroke="hsl(191.89999999999998, 74.9%, 65%)" stroke-width="1.5"></path><path d="M1610.7 404.05L1446.03 225.87" stroke="hsl(191.89999999999998, 74.9%, 65%)" stroke-width="1.5"></path><circle r="25" cx="85.59" cy="509.42" fill="url(&quot;#SvgjsRadialGradient1035&quot;)"></circle><circle r="25" cx="192.55" cy="702.94" fill="url(&quot;#SvgjsRadialGradient1035&quot;)"></circle><circle r="25" cx="839.77" cy="558.91" fill="url(&quot;#SvgjsRadialGradient1035&quot;)"></circle><circle r="25" cx="969.47" cy="360.11" fill="url(&quot;#SvgjsRadialGradient1035&quot;)"></circle><circle r="25" cx="1090.24" cy="660.11" fill="url(&quot;#SvgjsRadialGradient1035&quot;)"></circle><circle r="25" cx="1251.81" cy="90.77" fill="url(&quot;#SvgjsRadialGradient1035&quot;)"></circle><circle r="25" cx="1259.92" cy="365.26" fill="url(&quot;#SvgjsRadialGradient1035&quot;)"></circle><circle r="25" cx="1426.27" cy="107.89" fill="url(&quot;#SvgjsRadialGradient1035&quot;)"></circle><circle r="5" cx="-92.04" cy="499.32" fill="#90dcef"></circle><circle r="5" cx="-76.64" cy="647.64" fill="#90dcef"></circle><circle r="5" cx="53.93" cy="668.15" fill="#90dcef"></circle><circle r="5" cx="191.08" cy="513.18" fill="#90dcef"></circle><circle r="5" cx="344.74" cy="491.67" fill="#90dcef"></circle><circle r="5" cx="367.48" cy="678.83" fill="#90dcef"></circle><circle r="5" cx="531.12" cy="560.63" fill="#90dcef"></circle><circle r="5" cx="526.17" cy="689.97" fill="#90dcef"></circle><circle r="5" cx="666.1" cy="493.31" fill="#90dcef"></circle><circle r="5" cx="708.84" cy="697.3" fill="#90dcef"></circle><circle r="5" cx="800.51" cy="401.87" fill="#90dcef"></circle><circle r="5" cx="818.5" cy="705.53" fill="#90dcef"></circle><circle r="5" cx="943.16" cy="489.15" fill="#90dcef"></circle><circle r="5" cx="938.77" cy="655.41" fill="#90dcef"></circle><circle r="5" cx="1137.26" cy="83.17" fill="#90dcef"></circle><circle r="5" cx="1128.04" cy="188.54" fill="#90dcef"></circle><circle r="5" cx="1120.7" cy="373.97" fill="#90dcef"></circle><circle r="5" cx="1098.35" cy="526.44" fill="#90dcef"></circle><circle r="5" cx="1279.82" cy="-82.89" fill="#90dcef"></circle><circle r="5" cx="1279.06" cy="206.71" fill="#90dcef"></circle><circle r="5" cx="1292.84" cy="490.23" fill="#90dcef"></circle><circle r="5" cx="1238.24" cy="692.78" fill="#90dcef"></circle><circle r="5" cx="1395.5" cy="-40.59" fill="#90dcef"></circle><circle r="5" cx="1446.03" cy="225.87" fill="#90dcef"></circle><circle r="5" cx="1412.84" cy="353.04" fill="#90dcef"></circle><circle r="5" cx="1412.98" cy="550.03" fill="#90dcef"></circle><circle r="5" cx="1459.17" cy="658.58" fill="#90dcef"></circle><circle r="5" cx="1565.09" cy="-85.77" fill="#90dcef"></circle><circle r="5" cx="1565.69" cy="46.76" fill="#90dcef"></circle><circle r="5" cx="1585.87" cy="236.85" fill="#90dcef"></circle><circle r="5" cx="1610.7" cy="404.05" fill="#90dcef"></circle></g><defs><mask id="SvgjsMask1034"><rect width="1440" height="560" fill="#ffffff"></rect></mask><radialGradient id="SvgjsRadialGradient1035"><stop stop-color="#ffffff" offset="0.1"></stop><stop stop-color="rgba(32, 185, 223, 1)" offset="0.2"></stop><stop stop-color="rgba(32, 185, 223, 0)" offset="1"></stop></radialGradient></defs></svg>