<svg xmlns="http://www.w3.org/2000/svg" xmlns:xlink="http://www.w3.org/1999/xlink" id="visual" width="900" height="600" version="1.1" viewBox="0 0 900 600"><path fill="#fa7268" d="M0 405L25 409.2C50 413.3 100 421.7 150 428.8C200 436 250 442 300 434.8C350 427.7 400 407.3 450 396.3C500 385.3 550 383.7 600 390C650 396.3 700 410.7 750 411C800 411.3 850 397.7 875 390.8L900 384L900 601L875 601C850 601 800 601 750 601C700 601 650 601 600 601C550 601 500 601 450 601C400 601 350 601 300 601C250 601 200 601 150 601C100 601 50 601 25 601L0 601Z"/><path fill="#ef5f67" d="M0 394L25 398.3C50 402.7 100 411.3 150 416.8C200 422.3 250 424.7 300 428.2C350 431.7 400 436.3 450 431C500 425.7 550 410.3 600 403.7C650 397 700 399 750 408.8C800 418.7 850 436.3 875 445.2L900 454L900 601L875 601C850 601 800 601 750 601C700 601 650 601 600 601C550 601 500 601 450 601C400 601 350 601 300 601C250 601 200 601 150 601C100 601 50 601 25 601L0 601Z"/><path fill="#e34c67" d="M0 483L25 479.8C50 476.7 100 470.3 150 467.8C200 465.3 250 466.7 300 472.8C350 479 400 490 450 493.8C500 497.7 550 494.3 600 487.8C650 481.3 700 471.7 750 464.7C800 457.7 850 453.3 875 451.2L900 449L900 601L875 601C850 601 800 601 750 601C700 601 650 601 600 601C550 601 500 601 450 601C400 601 350 601 300 601C250 601 200 601 150 601C100 601 50 601 25 601L0 601Z"/><path fill="#d53867" d="M0 540L25 533C50 526 100 512 150 511C200 510 250 522 300 526.7C350 531.3 400 528.7 450 529.5C500 530.3 550 534.7 600 534.7C650 534.7 700 530.3 750 528.7C800 527 850 528 875 528.5L900 529L900 601L875 601C850 601 800 601 750 601C700 601 650 601 600 601C550 601 500 601 450 601C400 601 350 601 300 601C250 601 200 601 150 601C100 601 50 601 25 601L0 601Z"/><path fill="#c62368" d="M0 526L25 528.7C50 531.3 100 536.7 150 542.8C200 549 250 556 300 553.2C350 550.3 400 537.7 450 533C500 528.3 550 531.7 600 533.2C650 534.7 700 534.3 750 536.5C800 538.7 850 543.3 875 545.7L900 548L900 601L875 601C850 601 800 601 750 601C700 601 650 601 600 601C550 601 500 601 450 601C400 601 350 601 300 601C250 601 200 601 150 601C100 601 50 601 25 601L0 601Z"/></svg>