<svg xmlns="http://www.w3.org/2000/svg" xmlns:svgjs="http://svgjs.dev/svgjs" xmlns:xlink="http://www.w3.org/1999/xlink" width="1440" height="560" preserveAspectRatio="none" version="1.1" viewBox="0 0 1440 560"><g fill="none" mask="url(&quot;#SvgjsMask1016&quot;)"><path stroke="rgba(58, 61, 96, 1)" stroke-width="2" d="M -871.7746174450294,371 C -775.77,320.6 -583.77,116.6 -391.77461744502943,119 C -199.77,121.4 -103.77,365.6 88.22538255497057,383 C 280.23,400.4 376.23,184.8 568.2253825549706,206 C 760.23,227.2 873.87,475 1048.2253825549706,489 C 1222.58,503 1361.65,318.6 1440,276"/><path stroke="rgba(47, 120, 192, 1)" stroke-width="2" d="M -310.3768069400793,199 C -214.38,233 -22.38,380.2 169.62319305992068,369 C 361.62,357.8 457.62,142.4 649.6231930599207,143 C 841.62,143.6 937.62,367 1129.6231930599206,372 C 1321.62,377 1547.55,185.8 1609.6231930599206,168 C 1671.7,150.2 1473.92,260 1440,283"/><path stroke="rgba(47, 120, 192, 1)" stroke-width="2" d="M -405.36973641707357,451 C -309.37,408.2 -117.37,267.8 74.63026358292645,237 C 266.63,206.2 362.63,308.2 554.6302635829264,297 C 746.63,285.8 842.63,168.8 1034.6302635829265,181 C 1226.63,193.2 1433.56,340.4 1514.6302635829265,358 C 1595.7,375.6 1454.93,286.8 1440,269"/><path stroke="rgba(58, 61, 96, 1)" stroke-width="2" d="M -817.2627642549526,264 C -721.26,277.2 -529.26,344.2 -337.2627642549525,330 C -145.26,315.8 -49.26,176.4 142.73723574504749,193 C 334.74,209.6 430.74,439.4 622.7372357450474,413 C 814.74,386.6 939.28,57.8 1102.7372357450474,61 C 1266.19,64.2 1372.55,355.4 1440,429"/></g><defs><mask id="SvgjsMask1016"><rect width="1440" height="560" fill="#fff"/></mask></defs></svg>